<svg xmlns="http://www.w3.org/2000/svg" viewBox="0 0 1200 466" width="1200" height="466" role="img"><defs><style>.m{font-family:ui-monospace,'SFMono-Regular','SF Mono',Menlo,Consolas,'DejaVu Sans Mono',monospace}
.s{font-family:'Inter','Segoe UI',system-ui,-apple-system,'Helvetica Neue',Arial,sans-serif}
@keyframes tw{0%,100%{opacity:1}50%{opacity:.14}}
@keyframes br{0%,100%{opacity:.55}50%{opacity:1}}
.tw{animation:tw 4s ease-in-out infinite}
.br{animation:br 7s ease-in-out infinite}</style>
<clipPath id="card"><rect x="1" y="1" width="1198" height="464" rx="20"/></clipPath>
<pattern id="dots" width="24" height="24" patternUnits="userSpaceOnUse">
  <circle cx="1.6" cy="1.6" r="1.05" fill="#141936"/>
</pattern>
<linearGradient id="spectrum" x1="0" y1="0" x2="1" y2="0">
  <stop offset="0" stop-color="#22D3EE"/>
  <stop offset="0.5" stop-color="#A78BFA"/>
  <stop offset="1" stop-color="#F472B6"/>
</linearGradient>
<linearGradient id="rule" x1="0" y1="0" x2="1" y2="0">
  <stop offset="0" stop-color="#A78BFA" stop-opacity="0.85"/>
  <stop offset="0.35" stop-color="#232A54" stop-opacity="0.9"/>
  <stop offset="1" stop-color="#232A54" stop-opacity="0"/>
</linearGradient>
<radialGradient id="au1" cx="0.5" cy="0.5" r="0.5">
  <stop offset="0" stop-color="#A78BFA" stop-opacity="0.21"/>
  <stop offset="1" stop-color="#A78BFA" stop-opacity="0"/>
</radialGradient>
<radialGradient id="au2" cx="0.5" cy="0.5" r="0.5">
  <stop offset="0" stop-color="#22D3EE" stop-opacity="0.21"/>
  <stop offset="1" stop-color="#22D3EE" stop-opacity="0"/>
</radialGradient></defs><g clip-path="url(#card)"><rect width="1200" height="466" fill="#070912"/><ellipse cx="250" cy="60" rx="420" ry="220" fill="url(#au1)" class="br"/><ellipse cx="1010" cy="300" rx="460" ry="260" fill="url(#au2)" class="br"/><rect width="1200" height="466" fill="url(#dots)" opacity="0.5"/><circle cx="48" cy="142" r="0.82" fill="#FFFFFF" fill-opacity="0.36" class="tw" style="animation-duration:3.8s;animation-delay:-3.6s"/><circle cx="633" cy="344" r="0.76" fill="#22D3EE" fill-opacity="0.21" class="tw" style="animation-duration:3.7s;animation-delay:-0.4s"/><circle cx="875" cy="54" r="0.48" fill="#FFFFFF" fill-opacity="0.38" class="tw" style="animation-duration:7.1s;animation-delay:-0.2s"/><circle cx="609" cy="116" r="0.49" fill="#FFFFFF" fill-opacity="0.19" class="tw" style="animation-duration:7.2s;animation-delay:-1.7s"/><circle cx="27" cy="299" r="0.92" fill="#FFFFFF" fill-opacity="0.32" class="tw" style="animation-duration:6.3s;animation-delay:-4.6s"/><circle cx="998" cy="216" r="0.84" fill="#FFFFFF" fill-opacity="0.24" class="tw" style="animation-duration:4.2s;animation-delay:-0.9s"/><circle cx="435" cy="332" r="0.45" fill="#A78BFA" fill-opacity="0.21" class="tw" style="animation-duration:4.2s;animation-delay:-3.6s"/><circle cx="610" cy="231" r="0.82" fill="#FFFFFF" fill-opacity="0.32" class="tw" style="animation-duration:3.1s;animation-delay:-1.5s"/><circle cx="1111" cy="361" r="0.48" fill="#A78BFA" fill-opacity="0.37" class="tw" style="animation-duration:7.0s;animation-delay:-1.2s"/><circle cx="176" cy="108" r="0.66" fill="#FFFFFF" fill-opacity="0.38" class="tw" style="animation-duration:6.8s;animation-delay:-3.3s"/><circle cx="1160" cy="367" r="0.77" fill="#FFFFFF" fill-opacity="0.27" class="tw" style="animation-duration:3.6s;animation-delay:-0.9s"/><circle cx="163" cy="291" r="0.86" fill="#FFFFFF" fill-opacity="0.27" class="tw" style="animation-duration:5.3s;animation-delay:-6.4s"/><circle cx="493" cy="46" r="0.52" fill="#FFFFFF" fill-opacity="0.39" class="tw" style="animation-duration:6.9s;animation-delay:-6.9s"/><circle cx="201" cy="199" r="0.78" fill="#FFFFFF" fill-opacity="0.22" class="tw" style="animation-duration:2.8s;animation-delay:-5.4s"/><circle cx="199" cy="278" r="0.54" fill="#F472B6" fill-opacity="0.26" class="tw" style="animation-duration:6.8s;animation-delay:-1.0s"/><circle cx="135" cy="176" r="0.89" fill="#A78BFA" fill-opacity="0.4" class="tw" style="animation-duration:3.5s;animation-delay:-3.0s"/><circle cx="874" cy="188" r="0.81" fill="#FFFFFF" fill-opacity="0.32" class="tw" style="animation-duration:5.0s;animation-delay:-2.6s"/><circle cx="594" cy="453" r="0.72" fill="#FFFFFF" fill-opacity="0.38" class="tw" style="animation-duration:2.6s;animation-delay:-3.1s"/><circle cx="939" cy="332" r="0.91" fill="#FFFFFF" fill-opacity="0.38" class="tw" style="animation-duration:3.3s;animation-delay:-3.0s"/><circle cx="513" cy="179" r="0.69" fill="#FFFFFF" fill-opacity="0.31" class="tw" style="animation-duration:5.5s;animation-delay:-6.7s"/><circle cx="1017" cy="97" r="0.7" fill="#FFFFFF" fill-opacity="0.33" class="tw" style="animation-duration:4.3s;animation-delay:-5.5s"/><circle cx="90" cy="64" r="0.6" fill="#FFFFFF" fill-opacity="0.26" class="tw" style="animation-duration:5.6s;animation-delay:-1.5s"/><circle cx="462" cy="212" r="0.74" fill="#A78BFA" fill-opacity="0.35" class="tw" style="animation-duration:5.2s;animation-delay:-4.8s"/><circle cx="761" cy="282" r="0.81" fill="#FFFFFF" fill-opacity="0.31" class="tw" style="animation-duration:6.0s;animation-delay:-0.3s"/><circle cx="75" cy="56" r="0.7" fill="#FFFFFF" fill-opacity="0.25" class="tw" style="animation-duration:5.7s;animation-delay:-3.3s"/><circle cx="571" cy="316" r="0.62" fill="#FFFFFF" fill-opacity="0.33" class="tw" style="animation-duration:3.9s;animation-delay:-6.3s"/><circle cx="824" cy="53" r="0.74" fill="#FFFFFF" fill-opacity="0.27" class="tw" style="animation-duration:3.5s;animation-delay:-3.2s"/><circle cx="483" cy="184" r="0.73" fill="#FFFFFF" fill-opacity="0.23" class="tw" style="animation-duration:4.9s;animation-delay:-3.0s"/><circle cx="170" cy="85" r="0.95" fill="#FFFFFF" fill-opacity="0.26" class="tw" style="animation-duration:4.0s;animation-delay:-4.7s"/><circle cx="826" cy="61" r="0.93" fill="#FFFFFF" fill-opacity="0.27" class="tw" style="animation-duration:5.8s;animation-delay:-3.6s"/><circle cx="331" cy="385" r="0.84" fill="#FFFFFF" fill-opacity="0.28" class="tw" style="animation-duration:4.8s;animation-delay:-3.3s"/><circle cx="998" cy="303" r="0.83" fill="#FFFFFF" fill-opacity="0.4" class="tw" style="animation-duration:5.7s;animation-delay:-3.4s"/><circle cx="1148" cy="130" r="0.99" fill="#FFFFFF" fill-opacity="0.29" class="tw" style="animation-duration:5.3s;animation-delay:-4.5s"/><circle cx="577" cy="175" r="0.87" fill="#22D3EE" fill-opacity="0.21" class="tw" style="animation-duration:3.1s;animation-delay:-5.1s"/></g><rect x="1" y="1" width="1198" height="464" rx="20" fill="none" stroke="#232A54" stroke-width="1.5"/><g><animate attributeName="opacity" values="0;0;1" keyTimes="0;0.0909;1" dur="0.55s" begin="0s" fill="freeze"/><text class="m" x="46" y="48" font-size="12.5" fill="#6A75A6"><tspan fill="#22D3EE">$</tspan> ls -l ~/projects</text><text class="s" x="46" y="80" font-size="27" font-weight="800" letter-spacing="-0.3" fill="#E9EEFF">What I'm actually building</text><rect x="1075.3" y="60" width="78.7" height="24" rx="12" fill="none" stroke="#232A54" stroke-width="1"/><text class="m" x="1114.7" y="76" font-size="10.5" letter-spacing="1.4" text-anchor="middle" fill="#6A75A6">2 SYSTEMS</text><rect x="46" y="97" height="1.5" width="1108" fill="url(#rule)"><animate attributeName="width" values="0;0;1108" keyTimes="0;0.1667;1" dur="1.20s" begin="0s" fill="freeze" calcMode="spline" keySplines="0 0 1 1;0.22 1 0.36 1"/></rect></g><g><animate attributeName="opacity" values="0;0;1" keyTimes="0;0.3333;1" dur="1.05s" begin="0s" fill="freeze"/><animateTransform attributeName="transform" type="translate" values="0 12;0 12;0 0" keyTimes="0;0.3333;1" dur="1.05s" begin="0s" fill="freeze" calcMode="spline" keySplines="0 0 1 1;0.22 1 0.36 1"/><rect x="46.0" y="126" width="534.0" height="268" rx="16" fill="#0E1226" stroke="#232A54" stroke-width="1.5"/><rect x="62.0" y="124.75" width="502.0" height="2.5" rx="1.25" fill="url(#spectrum)"/><g transform="translate(70.00,152.00) scale(0.9167)"><path d="M4 1.8h2.4v3.1h1.7v10.4H6.4v3.1H4v-3.1H2.3V4.9H4zm6.8 3.6h2.4v3.1h1.7v10.4h-1.7v3.1h-2.4v-3.1H9.1V8.5h1.7zm6.8-3.6H20v3.1h1.7v8.6H20v3.1h-2.4v-3.1h-1.7V4.9h1.7z" fill="#22D3EE"/></g><text class="s" x="102.0" y="170" font-size="17" font-weight="700" fill="#E9EEFF">Multi-Agent Trading Desk</text><rect x="462.0" y="152" width="96.0" height="22" rx="11" fill="#FBBF24" fill-opacity="0.14" stroke="#FBBF24" stroke-opacity="0.45" stroke-width="1"/><circle cx="474.0" cy="163" r="3" fill="#FBBF24"><animate attributeName="opacity" values="1;0.3;1" dur="2.4s" repeatCount="indefinite"/></circle><text class="m" x="482.0" y="167" font-size="10" letter-spacing="1.2" fill="#FBBF24">IN PROGRESS</text><text class="m" x="70.0" y="202" font-size="11.5" fill="#A2ADD6">A deterministic scanner feeds three specialist agents, a trader</text><text class="m" x="70.0" y="221" font-size="11.5" fill="#A2ADD6">synthesises them, and a pure-code risk gate gets the last word.</text><rect x="66.0" y="238" width="494.0" height="104" rx="10" fill="#070912" fill-opacity="0.6" stroke="#232A54" stroke-width="1" opacity="0.8"/><g transform="translate(96.6,330)"><g transform="scale(1,1)"><animateTransform attributeName="transform" type="scale" values="1 0;1 0;1 1" keyTimes="0;0.6429;1" dur="1.40s" begin="0s" fill="freeze" calcMode="spline" keySplines="0 0 1 1;0.22 1 0.36 1"/><line x1="0" y1="-35.8" x2="0" y2="-56.0" stroke="#34D399" stroke-width="1.2" opacity="0.7"/><rect x="-8.3" y="-51.1" width="16.6" height="4.4" rx="1.2" fill="#34D399" opacity="0.95"/></g></g><g transform="translate(129.9,330)"><g transform="scale(1,1)"><animateTransform attributeName="transform" type="scale" values="1 0;1 0;1 1" keyTimes="0;0.6528;1" dur="1.44s" begin="0s" fill="freeze" calcMode="spline" keySplines="0 0 1 1;0.22 1 0.36 1"/><line x1="0" y1="-39.1" x2="0" y2="-60.6" stroke="#FB7185" stroke-width="1.2" opacity="0.7"/><rect x="-8.3" y="-51.1" width="16.6" height="4.5" rx="1.2" fill="#FB7185" opacity="0.85"/></g></g><g transform="translate(163.2,330)"><g transform="scale(1,1)"><animateTransform attributeName="transform" type="scale" values="1 0;1 0;1 1" keyTimes="0;0.6622;1" dur="1.48s" begin="0s" fill="freeze" calcMode="spline" keySplines="0 0 1 1;0.22 1 0.36 1"/><line x1="0" y1="-38.1" x2="0" y2="-55.8" stroke="#FB7185" stroke-width="1.2" opacity="0.7"/><rect x="-8.3" y="-46.6" width="16.6" height="5.0" rx="1.2" fill="#FB7185" opacity="0.85"/></g></g><g transform="translate(196.5,330)"><g transform="scale(1,1)"><animateTransform attributeName="transform" type="scale" values="1 0;1 0;1 1" keyTimes="0;0.6711;1" dur="1.52s" begin="0s" fill="freeze" calcMode="spline" keySplines="0 0 1 1;0.22 1 0.36 1"/><line x1="0" y1="-22.5" x2="0" y2="-45.4" stroke="#FB7185" stroke-width="1.2" opacity="0.7"/><rect x="-8.3" y="-41.6" width="16.6" height="15.0" rx="1.2" fill="#FB7185" opacity="0.85"/></g></g><g transform="translate(229.8,330)"><g transform="scale(1,1)"><animateTransform attributeName="transform" type="scale" values="1 0;1 0;1 1" keyTimes="0;0.6795;1" dur="1.56s" begin="0s" fill="freeze" calcMode="spline" keySplines="0 0 1 1;0.22 1 0.36 1"/><line x1="0" y1="-22.1" x2="0" y2="-47.6" stroke="#34D399" stroke-width="1.2" opacity="0.7"/><rect x="-8.3" y="-34.5" width="16.6" height="7.9" rx="1.2" fill="#34D399" opacity="0.95"/></g></g><g transform="translate(263.1,330)"><g transform="scale(1,1)"><animateTransform attributeName="transform" type="scale" values="1 0;1 0;1 1" keyTimes="0;0.6875;1" dur="1.60s" begin="0s" fill="freeze" calcMode="spline" keySplines="0 0 1 1;0.22 1 0.36 1"/><line x1="0" y1="-20.0" x2="0" y2="-46.0" stroke="#34D399" stroke-width="1.2" opacity="0.7"/><rect x="-8.3" y="-35.4" width="16.6" height="2.0" rx="1.2" fill="#34D399" opacity="0.95"/></g></g><g transform="translate(296.4,330)"><g transform="scale(1,1)"><animateTransform attributeName="transform" type="scale" values="1 0;1 0;1 1" keyTimes="0;0.6951;1" dur="1.64s" begin="0s" fill="freeze" calcMode="spline" keySplines="0 0 1 1;0.22 1 0.36 1"/><line x1="0" y1="-20.5" x2="0" y2="-56.5" stroke="#34D399" stroke-width="1.2" opacity="0.7"/><rect x="-8.3" y="-48.7" width="16.6" height="13.3" rx="1.2" fill="#34D399" opacity="0.95"/></g></g><g transform="translate(329.6,330)"><g transform="scale(1,1)"><animateTransform attributeName="transform" type="scale" values="1 0;1 0;1 1" keyTimes="0;0.7024;1" dur="1.68s" begin="0s" fill="freeze" calcMode="spline" keySplines="0 0 1 1;0.22 1 0.36 1"/><line x1="0" y1="-36.7" x2="0" y2="-62.1" stroke="#FB7185" stroke-width="1.2" opacity="0.7"/><rect x="-8.3" y="-48.7" width="16.6" height="5.4" rx="1.2" fill="#FB7185" opacity="0.85"/></g></g><g transform="translate(362.9,330)"><g transform="scale(1,1)"><animateTransform attributeName="transform" type="scale" values="1 0;1 0;1 1" keyTimes="0;0.7093;1" dur="1.72s" begin="0s" fill="freeze" calcMode="spline" keySplines="0 0 1 1;0.22 1 0.36 1"/><line x1="0" y1="-11.3" x2="0" y2="-47.7" stroke="#FB7185" stroke-width="1.2" opacity="0.7"/><rect x="-8.3" y="-43.3" width="16.6" height="25.2" rx="1.2" fill="#FB7185" opacity="0.85"/></g></g><g transform="translate(396.2,330)"><g transform="scale(1,1)"><animateTransform attributeName="transform" type="scale" values="1 0;1 0;1 1" keyTimes="0;0.7159;1" dur="1.76s" begin="0s" fill="freeze" calcMode="spline" keySplines="0 0 1 1;0.22 1 0.36 1"/><line x1="0" y1="-8.0" x2="0" y2="-45.1" stroke="#34D399" stroke-width="1.2" opacity="0.7"/><rect x="-8.3" y="-39.8" width="16.6" height="21.8" rx="1.2" fill="#34D399" opacity="0.95"/></g></g><g transform="translate(429.5,330)"><g transform="scale(1,1)"><animateTransform attributeName="transform" type="scale" values="1 0;1 0;1 1" keyTimes="0;0.7222;1" dur="1.80s" begin="0s" fill="freeze" calcMode="spline" keySplines="0 0 1 1;0.22 1 0.36 1"/><line x1="0" y1="-30.2" x2="0" y2="-62.9" stroke="#34D399" stroke-width="1.2" opacity="0.7"/><rect x="-8.3" y="-55.4" width="16.6" height="15.5" rx="1.2" fill="#34D399" opacity="0.95"/></g></g><g transform="translate(462.8,330)"><g transform="scale(1,1)"><animateTransform attributeName="transform" type="scale" values="1 0;1 0;1 1" keyTimes="0;0.7283;1" dur="1.84s" begin="0s" fill="freeze" calcMode="spline" keySplines="0 0 1 1;0.22 1 0.36 1"/><line x1="0" y1="-45.0" x2="0" y2="-59.1" stroke="#FB7185" stroke-width="1.2" opacity="0.7"/><rect x="-8.3" y="-55.4" width="16.6" height="4.8" rx="1.2" fill="#FB7185" opacity="0.85"/></g></g><g transform="translate(496.1,330)"><g transform="scale(1,1)"><animateTransform attributeName="transform" type="scale" values="1 0;1 0;1 1" keyTimes="0;0.7340;1" dur="1.88s" begin="0s" fill="freeze" calcMode="spline" keySplines="0 0 1 1;0.22 1 0.36 1"/><line x1="0" y1="-43.7" x2="0" y2="-75.7" stroke="#34D399" stroke-width="1.2" opacity="0.7"/><rect x="-8.3" y="-67.5" width="16.6" height="17.0" rx="1.2" fill="#34D399" opacity="0.95"/></g></g><g transform="translate(529.4,330)"><g transform="scale(1,1)"><animateTransform attributeName="transform" type="scale" values="1 0;1 0;1 1" keyTimes="0;0.7396;1" dur="1.92s" begin="0s" fill="freeze" calcMode="spline" keySplines="0 0 1 1;0.22 1 0.36 1"/><line x1="0" y1="-51.2" x2="0" y2="-76.0" stroke="#FB7185" stroke-width="1.2" opacity="0.7"/><rect x="-8.3" y="-67.5" width="16.6" height="9.6" rx="1.2" fill="#FB7185" opacity="0.85"/></g></g><path d="M96.6 278.9 L129.9 283.4 L163.2 288.4 L196.5 303.4 L229.8 295.5 L263.1 294.6 L296.4 281.3 L329.6 286.7 L362.9 311.9 L396.2 290.2 L429.5 274.6 L462.8 279.5 L496.1 262.5 L529.4 272.1" fill="none" stroke="#22D3EE" stroke-width="1.8" stroke-linecap="round" stroke-linejoin="round" opacity="0.9" stroke-dasharray="465" stroke-dashoffset="0"><animate attributeName="stroke-dashoffset" values="465;465;0" keyTimes="0;0.4444;1" dur="2.70s" begin="0s" fill="freeze" calcMode="spline" keySplines="0 0 1 1;0.4 0 0.2 1"/></path><circle cx="529.4" cy="272.1" r="3.4" fill="#22D3EE"/><circle cx="529.4" cy="272.1" r="3.4" fill="none" stroke="#22D3EE" stroke-width="1.3" opacity="0"><animate attributeName="r" values="3.4;12" dur="2.1s" begin="2.4s" repeatCount="indefinite"/><animate attributeName="opacity" values="0.7;0" dur="2.1s" begin="2.4s" repeatCount="indefinite"/></circle><rect x="70.0" y="354" width="76.7" height="22" rx="11" fill="none" stroke="#232A54" stroke-width="1"/><text class="m" x="80.0" y="369" font-size="10.5" fill="#6A75A6">LangGraph</text><rect x="153.7" y="354" width="127.1" height="22" rx="11" fill="none" stroke="#232A54" stroke-width="1"/><text class="m" x="163.7" y="369" font-size="10.5" fill="#6A75A6">human-in-the-loop</text><rect x="287.8" y="354" width="76.7" height="22" rx="11" fill="none" stroke="#232A54" stroke-width="1"/><text class="m" x="297.8" y="369" font-size="10.5" fill="#6A75A6">risk gate</text><rect x="371.5" y="354" width="101.9" height="22" rx="11" fill="none" stroke="#232A54" stroke-width="1"/><text class="m" x="381.5" y="369" font-size="10.5" fill="#6A75A6">trade journal</text></g><g><animate attributeName="opacity" values="0;0;1" keyTimes="0;0.4118;1" dur="1.19s" begin="0s" fill="freeze"/><animateTransform attributeName="transform" type="translate" values="0 12;0 12;0 0" keyTimes="0;0.4118;1" dur="1.19s" begin="0s" fill="freeze" calcMode="spline" keySplines="0 0 1 1;0.22 1 0.36 1"/><rect x="620.0" y="126" width="534.0" height="268" rx="16" fill="#0E1226" stroke="#232A54" stroke-width="1.5"/><rect x="636.0" y="124.75" width="502.0" height="2.5" rx="1.25" fill="url(#spectrum)"/><g transform="translate(644.00,152.00) scale(0.9167)"><g fill="#F472B6"><rect x="2.4" y="13" width="4.2" height="8.6" rx="1.2"/><rect x="9.9" y="9" width="4.2" height="12.6" rx="1.2"/><rect x="17.4" y="15.4" width="4.2" height="6.2" rx="1.2"/></g><path d="M14.2 5.6L17 8.4L22.4 2.6" fill="none" stroke="#F472B6" stroke-width="2.4" stroke-linecap="round" stroke-linejoin="round"/></g><text class="s" x="676.0" y="170" font-size="17" font-weight="700" fill="#E9EEFF">Agentic RAG Eval Harness</text><rect x="1060.0" y="152" width="72.0" height="22" rx="11" fill="#34D399" fill-opacity="0.14" stroke="#34D399" stroke-opacity="0.45" stroke-width="1"/><circle cx="1072.0" cy="163" r="3" fill="#34D399"><animate attributeName="opacity" values="1;0.3;1" dur="2.4s" repeatCount="indefinite"/></circle><text class="m" x="1080.0" y="167" font-size="10" letter-spacing="1.2" fill="#34D399">SHIPPED</text><text class="m" x="644.0" y="202" font-size="11.5" fill="#A2ADD6">Grades whether a RAG agent actually called its tools or just</text><text class="m" x="644.0" y="221" font-size="11.5" fill="#A2ADD6">wrote something plausible. It skipped them more than I expected.</text><rect x="640.0" y="238" width="494.0" height="104" rx="10" fill="#070912" fill-opacity="0.6" stroke="#232A54" stroke-width="1" opacity="0.8"/><line x1="750.0" y1="246" x2="750.0" y2="322" stroke="#232A54" stroke-width="1" opacity="0.55"/><line x1="842.5" y1="246" x2="842.5" y2="322" stroke="#232A54" stroke-width="1" opacity="0.55"/><line x1="935.0" y1="246" x2="935.0" y2="322" stroke="#232A54" stroke-width="1" opacity="0.55"/><line x1="1027.5" y1="246" x2="1027.5" y2="322" stroke="#232A54" stroke-width="1" opacity="0.55"/><line x1="1120.0" y1="246" x2="1120.0" y2="322" stroke="#232A54" stroke-width="1" opacity="0.55"/><text class="m" x="654.0" y="261.0" font-size="11" fill="#6A75A6">retrieve</text><rect x="750.0" y="251.0" width="111.0" height="13" rx="6.5" fill="#A78BFA" opacity="0.82"><animate attributeName="width" values="0;0;111.0" keyTimes="0;0.6452;1" dur="1.55s" begin="0s" fill="freeze" calcMode="spline" keySplines="0 0 1 1;0.22 1 0.36 1"/></rect><text class="m" x="654.0" y="276.6" font-size="11" fill="#6A75A6">tool:search</text><rect x="831.4" y="266.6" width="125.8" height="13" rx="6.5" fill="#22D3EE" opacity="0.82"><animate attributeName="width" values="0;0;125.8" keyTimes="0;0.6646;1" dur="1.64s" begin="0s" fill="freeze" calcMode="spline" keySplines="0 0 1 1;0.22 1 0.36 1"/></rect><text class="m" x="654.0" y="292.2" font-size="11" fill="#6A75A6">tool:price</text><rect x="927.6" y="282.2" width="74.0" height="13" rx="6.5" fill="#22D3EE" opacity="0.82"><animate attributeName="width" values="0;0;74.0" keyTimes="0;0.6821;1" dur="1.73s" begin="0s" fill="freeze" calcMode="spline" keySplines="0 0 1 1;0.22 1 0.36 1"/></rect><text class="m" x="654.0" y="307.8" font-size="11" fill="#6A75A6">synthesize</text><rect x="972.0" y="297.8" width="96.2" height="13" rx="6.5" fill="#F472B6" opacity="0.82"><animate attributeName="width" values="0;0;96.2" keyTimes="0;0.6978;1" dur="1.82s" begin="0s" fill="freeze" calcMode="spline" keySplines="0 0 1 1;0.22 1 0.36 1"/></rect><text class="m" x="654.0" y="323.4" font-size="11" fill="#6A75A6">judge</text><rect x="1053.4" y="313.4" width="66.6" height="13" rx="6.5" fill="#FBBF24" opacity="0.82"><animate attributeName="width" values="0;0;66.6" keyTimes="0;0.7120;1" dur="1.91s" begin="0s" fill="freeze" calcMode="spline" keySplines="0 0 1 1;0.22 1 0.36 1"/></rect><rect x="750.0" y="244" width="1.4" height="80" fill="#22D3EE" opacity="0.55"><animate attributeName="x" values="750.0;1120.0" dur="3.4s" begin="1.6s" repeatCount="indefinite"/><animate attributeName="opacity" values="0;0.6;0.6;0" dur="3.4s" begin="1.6s" repeatCount="indefinite"/></rect><rect x="644.0" y="354" width="95.6" height="22" rx="11" fill="none" stroke="#232A54" stroke-width="1"/><text class="m" x="654.0" y="369" font-size="10.5" fill="#6A75A6">LLM-as-judge</text><rect x="746.6" y="354" width="120.8" height="22" rx="11" fill="none" stroke="#232A54" stroke-width="1"/><text class="m" x="756.6" y="369" font-size="10.5" fill="#6A75A6">trace assertions</text><rect x="874.4" y="354" width="89.3" height="22" rx="11" fill="none" stroke="#232A54" stroke-width="1"/><text class="m" x="884.4" y="369" font-size="10.5" fill="#6A75A6">seeded runs</text><rect x="970.7" y="354" width="57.8" height="22" rx="11" fill="none" stroke="#232A54" stroke-width="1"/><text class="m" x="980.7" y="369" font-size="10.5" fill="#6A75A6">Qdrant</text></g><line x1="46" y1="420" x2="1154" y2="420" stroke="#232A54" stroke-width="1" opacity="0.7"/><g><animate attributeName="opacity" values="0;0;1" keyTimes="0;0.6667;1" dur="2.40s" begin="0s" fill="freeze"/><text class="m" x="46" y="446" font-size="11.5" fill="#6A75A6">Both charts above are schematics of the systems, not measured results — the numbers that matter live in the repos.</text></g></svg>